<svg xmlns="http://www.w3.org/2000/svg" viewBox="0 0 880 76" width="880" height="76"><style>.hh{animation:hh 1.6s ease-in-out infinite}@keyframes hh{0%,100%{opacity:1}50%{opacity:.3}}</style><path d="M176.8 14.7 174.7 22.6Q174.5 23.5 174.5 24Q174.5 24.7 174.9 25Q175.3 25.2 176.3 25.2L176 26H169.7L169.9 25.2Q170.7 25.2 171.2 25Q171.7 24.8 172 24.3Q172.3 23.8 172.6 22.8L174.9 14Q175.2 12.9 175.2 12.4Q175.2 11.7 174.8 11.6Q174.3 11.4 173.2 11.4L173.5 10.6H180L179.7 11.4Q178.9 11.4 178.3 11.7Q177.8 11.9 177.5 12.6Q177.2 13.3 176.8 14.7ZM182.9 17 181 24.5Q180.5 26.6 180 27.9Q179.5 29.2 178.9 29.9Q178.3 30.6 177.6 30.9Q176.9 31.2 176 31.2Q175.5 31.2 175.1 31Q174.6 30.8 174.4 30.5Q174.1 30.1 174.1 29.7Q174.1 29.2 174.4 28.9Q174.6 28.6 175.1 28.6Q175.5 28.6 175.7 28.8Q175.9 29 175.9 29.3Q176 29.6 176.2 29.8Q176.4 30 176.7 30Q177.2 30 177.6 29.5Q178 29.1 178.2 28.3L181.1 17H179.1L179.4 16.1H181.3Q181.9 13.7 182.6 12.2Q183.3 10.7 184.2 10.1Q185.1 9.4 186.1 9.4Q187.3 9.4 188.1 9.9Q188.8 10.4 188.8 11.1Q188.8 11.6 188.6 11.9Q188.3 12.2 187.9 12.2Q187.4 12.2 187.2 12Q187 11.8 186.9 11.5L186.7 11Q186.6 10.7 186.5 10.5Q186.3 10.3 185.9 10.3Q185.4 10.3 184.9 11Q184.4 11.8 183.9 13.1Q183.5 14.4 183.1 16.1H185.2L184.9 17ZM189.1 31.2Q188.3 31.2 187.8 30.7Q187.3 30.3 187.3 29.6Q187.3 29.1 187.5 28.8Q187.8 28.5 188.3 28.5Q188.7 28.5 188.9 28.7Q189.1 29 189.2 29.2Q189.3 29.5 189.4 29.8Q189.6 30 189.8 30Q190.2 30 190.8 29.6Q191.4 29.2 192 28.5Q192.6 27.9 193.1 27.1Q193.6 26.4 193.8 25.8L192.7 20.2Q192.3 18.5 192 17.9Q191.7 17.3 191.4 17.3Q191 17.3 190.7 17.8Q190.4 18.4 190 19.6L189.3 19.4Q189.6 18.2 190 17.2Q190.5 16.3 191.1 15.7Q191.7 15.2 192.3 15.2Q192.6 15.2 192.9 15.5Q193.2 15.8 193.5 16.5Q193.7 17.1 194 18.2Q194.3 19.3 194.6 20.6L195.2 23.8H195.3Q195.8 23.2 196.3 22.3Q196.8 21.5 197.2 20.6Q197.5 19.6 197.5 18.8Q197.5 18.5 197.5 18.1Q197.5 17.7 197.4 17.2Q197.4 16.8 197.4 16.6Q197.4 15.9 197.7 15.5Q198.1 15.2 198.5 15.2Q199 15.2 199.3 15.6Q199.5 16.1 199.5 16.7Q199.5 17.3 199.2 18.3Q198.9 19.2 198.4 20.4Q197.9 21.5 197.3 22.7Q196.6 23.9 195.9 25.1Q195.1 26.3 194.3 27.3Q192.8 29.3 191.5 30.2Q190.2 31.2 189.1 31.2ZM203.5 26.2Q202.6 26.2 201.9 25.7Q201.1 25.2 200.7 24.3Q200.3 23.4 200.3 22.2Q200.3 20.9 200.7 19.6Q201.2 18.4 202 17.4Q202.9 16.4 203.9 15.8Q204.9 15.2 206 15.2Q207 15.2 207.7 15.7Q208.5 16.2 208.9 17Q209.3 17.9 209.3 19Q209.3 20.3 208.8 21.6Q208.3 22.8 207.5 23.9Q206.7 24.9 205.6 25.6Q204.6 26.2 203.5 26.2ZM203.6 25.2Q204.2 25.2 204.7 24.8Q205.3 24.3 205.7 23.5Q206.2 22.8 206.6 21.8Q207 20.9 207.2 19.9Q207.4 18.9 207.4 18Q207.4 16.9 207 16.5Q206.6 16.1 206 16.1Q205.5 16.1 204.9 16.6Q204.4 17 203.9 17.8Q203.5 18.5 203.1 19.4Q202.8 20.3 202.6 21.3Q202.4 22.3 202.4 23.2Q202.4 24.3 202.7 24.7Q203.1 25.2 203.6 25.2ZM213.6 24.8Q213.9 24.8 214.5 24.3Q215 23.9 215.6 23.1Q216.1 22.4 216.7 21.4Q217.2 20.4 217.6 19.4L219.1 15.4H221L219.5 20Q219.1 21.3 218.8 22.1Q218.5 23 218.4 23.5Q218.3 23.9 218.3 24.2Q218.3 24.7 218.7 24.7Q219 24.7 219.3 24.4Q219.7 24 220.1 23.5Q220.5 23 220.8 22.4L221.4 22.7Q221 23.6 220.4 24.4Q219.8 25.2 219.1 25.7Q218.4 26.2 217.7 26.2Q217.1 26.2 216.8 25.8Q216.6 25.3 216.6 24.5Q216.6 24.2 216.6 23.8Q216.7 23.4 216.8 23L216.7 22.9Q216 24.2 215.3 24.9Q214.7 25.6 214 25.9Q213.4 26.2 212.8 26.2Q211.9 26.2 211.5 25.7Q211.1 25.2 211.1 24.4Q211.1 23.6 211.5 22.5Q211.8 21.5 212.1 20.6Q212.6 19.4 212.9 18.7Q213.2 18 213.3 17.6Q213.4 17.2 213.4 17Q213.4 16.9 213.4 16.8Q213.4 16.8 213.3 16.8Q213 16.8 212.5 17.2Q212 17.7 211.2 18.7L210.7 18.4Q211.1 17.6 211.7 16.9Q212.4 16.2 213.1 15.7Q213.9 15.2 214.5 15.2Q215 15.2 215.3 15.5Q215.5 15.8 215.5 16.4Q215.5 17.1 215.1 18.2Q214.7 19.3 214.1 20.8Q213.7 21.8 213.5 22.6Q213.2 23.4 213.2 24Q213.2 24.4 213.3 24.6Q213.4 24.8 213.6 24.8ZM225.4 14.7H224.8Q225 13.5 225 12.5Q225.1 11.6 225.2 10.9Q225.3 10.2 225.6 9.8Q225.9 9.4 226.5 9.4Q226.8 9.4 227 9.6Q227.2 9.8 227.2 10.1Q227.2 10.2 227 10.7Q226.9 11.1 226.6 11.8Q226.3 12.5 226 13.2Q225.7 14 225.4 14.7ZM226.6 18.4 226.1 18.2Q226.3 17.7 226.8 17.2Q227.2 16.6 227.8 16.2Q228.3 15.7 228.8 15.5Q229.4 15.2 229.8 15.2Q230.2 15.2 230.5 15.6Q230.7 15.9 230.7 16.7Q230.7 17.3 230.5 18L230.6 18.1Q230.9 17.3 231.6 16.6Q232.2 15.9 232.9 15.4Q233.7 15 234.3 15Q234.8 15 235.2 15.4Q235.6 15.7 235.6 16.3Q235.6 16.8 235.3 17.1Q235 17.5 234.4 17.5Q234 17.5 233.8 17.3Q233.6 17.1 233.4 16.9Q233.3 16.7 233 16.7Q232.5 16.7 231.8 17.6Q231.1 18.5 230.4 20Q229.7 21.4 229.1 23.2L228.2 26H226.3L227.6 21.9Q228.1 20.3 228.4 19.3Q228.7 18.4 228.8 18Q228.9 17.5 228.9 17.2Q228.9 17 228.8 16.9Q228.7 16.8 228.6 16.8Q228.3 16.8 227.9 17Q227.5 17.3 227.2 17.7Q226.8 18.1 226.6 18.4ZM237.7 26.2Q236.4 26.2 235.6 25.3Q234.9 24.5 234.9 22.9Q234.9 21.8 235.2 20.7Q235.6 19.6 236.2 18.6Q236.9 17.6 237.7 16.9Q238.5 16.1 239.4 15.7Q240.3 15.2 241.3 15.2Q242.2 15.2 242.8 15.7Q243.4 16.2 243.4 16.9Q243.4 17.6 242.9 18.4Q242.4 19.1 241.5 19.8Q240.6 20.5 239.4 21Q238.2 21.5 236.9 21.8Q236.9 22.1 236.8 22.4Q236.8 22.6 236.8 22.9Q236.8 24 237.2 24.5Q237.6 25.1 238.4 25.1Q239.1 25.1 239.9 24.5Q240.7 23.9 241.4 22.9L242 23.3Q241.1 24.7 240 25.5Q239 26.2 237.7 26.2ZM237.1 20.9Q238.4 20.6 239.4 19.9Q240.4 19.3 241 18.6Q241.6 17.8 241.6 17Q241.6 16.1 240.9 16.1Q240.3 16.1 239.8 16.5Q239.2 16.9 238.7 17.6Q238.2 18.3 237.8 19.1Q237.4 20 237.1 20.9ZM255.8 9.4 253.3 17.1 253.3 17.2Q253.9 16.2 254.8 15.7Q255.7 15.2 256.6 15.2Q257.9 15.2 258.5 16Q259.2 16.8 259.2 18.1Q259.2 19.2 258.8 20.4Q258.4 21.5 257.7 22.6Q257 23.6 256.2 24.4Q255.3 25.3 254.3 25.7Q253.3 26.2 252.4 26.2Q251.2 26.2 250.5 25.5Q249.8 24.8 249.8 23.7Q249.8 23.2 250 22.2Q250.2 21.3 250.6 20L253 12.2Q253.1 11.8 253.2 11.4Q253.3 11.1 253.3 10.9Q253.3 10.5 253 10.4Q252.6 10.2 251.8 10.2L252 9.6ZM252.7 25.2Q253.2 25.2 253.9 24.7Q254.5 24.3 255.1 23.5Q255.7 22.7 256.1 21.8Q256.6 20.8 256.9 19.8Q257.2 18.8 257.2 17.9Q257.2 17.2 256.9 16.7Q256.6 16.3 256.1 16.3Q255.6 16.3 254.9 16.7Q254.3 17.2 253.8 18Q253.2 18.8 252.7 19.7Q252.2 20.7 251.9 21.7Q251.7 22.7 251.7 23.5Q251.7 25.2 252.7 25.2ZM263.3 24.8Q263.6 24.8 264.1 24.3Q264.6 23.9 265.2 23.1Q265.8 22.4 266.3 21.4Q266.9 20.4 267.3 19.4L268.7 15.4H270.6L269.1 20Q268.7 21.3 268.4 22.1Q268.2 23 268.1 23.5Q268 23.9 268 24.2Q268 24.7 268.3 24.7Q268.6 24.7 269 24.4Q269.4 24 269.8 23.5Q270.1 23 270.4 22.4L271 22.7Q270.7 23.6 270 24.4Q269.4 25.2 268.7 25.7Q268 26.2 267.3 26.2Q266.7 26.2 266.5 25.8Q266.3 25.3 266.3 24.5Q266.3 24.2 266.3 23.8Q266.3 23.4 266.4 23L266.3 22.9Q265.6 24.2 265 24.9Q264.3 25.6 263.7 25.9Q263 26.2 262.5 26.2Q261.5 26.2 261.2 25.7Q260.8 25.2 260.8 24.4Q260.8 23.6 261.1 22.5Q261.4 21.5 261.8 20.6Q262.3 19.4 262.5 18.7Q262.8 18 263 17.6Q263.1 17.2 263.1 17Q263.1 16.9 263 16.8Q263 16.8 262.9 16.8Q262.6 16.8 262.1 17.2Q261.7 17.7 260.8 18.7L260.3 18.4Q260.7 17.6 261.4 16.9Q262 16.2 262.8 15.7Q263.5 15.2 264.2 15.2Q264.6 15.2 264.9 15.5Q265.2 15.8 265.2 16.4Q265.2 17.1 264.8 18.2Q264.4 19.3 263.8 20.8Q263.4 21.8 263.1 22.6Q262.8 23.4 262.8 24Q262.8 24.4 263 24.6Q263.1 24.8 263.3 24.8ZM273.9 26.2Q273.3 26.2 273 25.9Q272.7 25.6 272.7 24.9Q272.7 24.3 272.9 23.6Q273.1 23 273.5 22L274.4 19.4Q274.6 18.6 274.8 18.1Q274.9 17.6 274.9 17.4Q274.9 17.1 274.8 17Q274.7 16.9 274.6 16.9Q274.3 16.9 273.9 17.3Q273.6 17.6 273.3 18Q273 18.4 272.9 18.6L272.3 18.3Q272.5 17.8 272.9 17.3Q273.4 16.8 273.9 16.3Q274.5 15.8 275.1 15.5Q275.6 15.2 276.1 15.2Q276.6 15.2 276.9 15.5Q277.1 15.8 277.1 16.5Q277.1 16.9 277 17.5Q276.8 18.1 276.5 18.8Q276.3 19.6 275.9 20.6L275.1 22.6Q275.1 22.8 275 23.1Q274.9 23.4 274.8 23.7Q274.7 24 274.7 24.2Q274.7 24.4 274.8 24.5Q274.9 24.7 275.1 24.7Q275.4 24.7 275.8 24.4Q276.1 24.2 276.4 23.8Q276.7 23.5 276.9 23.1Q277.2 22.8 277.3 22.6L277.9 22.9Q277.6 23.4 277.2 24Q276.8 24.5 276.3 25Q275.8 25.6 275.2 25.9Q274.5 26.2 273.9 26.2ZM277.3 11.9Q276.8 11.9 276.4 11.6Q276.1 11.2 276.1 10.7Q276.1 10.2 276.4 9.8Q276.8 9.4 277.3 9.4Q277.9 9.4 278.2 9.8Q278.6 10.2 278.6 10.7Q278.6 11.2 278.2 11.6Q277.8 11.9 277.3 11.9ZM280.4 26.2Q279.8 26.2 279.4 25.9Q279.1 25.6 279.1 24.9Q279.1 24.5 279.2 23.8Q279.3 23.1 279.6 22L282.3 12.2Q282.4 11.8 282.5 11.4Q282.6 11.1 282.6 10.9Q282.6 10.2 281.1 10.2L281.2 9.6L284.9 9.4L281.3 22.6Q281.2 23.1 281.1 23.5Q281 23.9 281 24.2Q281 24.4 281.1 24.5Q281.2 24.7 281.4 24.7Q281.7 24.7 282.1 24.4Q282.4 24.1 282.8 23.8Q283.1 23.4 283.4 23Q283.6 22.6 283.7 22.4L284.3 22.7Q283.9 23.6 283.2 24.4Q282.6 25.2 281.8 25.7Q281.1 26.2 280.4 26.2ZM287.5 26.2Q286.8 26.2 286.3 25.8Q285.7 25.4 285.4 24.7Q285.1 24 285.1 23.1Q285.1 22 285.5 20.9Q285.9 19.8 286.5 18.8Q287.2 17.8 288 17Q288.8 16.2 289.7 15.7Q290.5 15.2 291.4 15.2Q292.1 15.2 292.4 15.5Q292.7 15.7 293.1 16.3L294.2 12.2Q294.4 11.6 294.5 11.3Q294.6 10.9 294.6 10.7Q294.6 10.4 294.2 10.3Q293.8 10.2 292.7 10.2L292.9 9.4H296.8L294.6 17.5Q294 19.6 293.7 20.9Q293.4 22.2 293.3 22.9Q293.1 23.6 293.1 24Q293.1 24.5 293.3 24.7Q293.4 24.9 293.6 24.9Q294.1 24.9 294.6 24.1Q295.1 23.4 295.5 22.2L296.3 22.4Q295.6 24.3 294.8 25.3Q294 26.2 292.9 26.2Q292.2 26.2 291.8 25.7Q291.4 25.3 291.4 24.4Q291.4 24.2 291.5 24Q291.5 23.7 291.6 23.5L291.4 23.5Q290.9 24.3 290.3 24.9Q289.6 25.6 288.9 25.9Q288.2 26.2 287.5 26.2ZM288.4 24.9Q288.9 24.9 289.5 24.4Q290.1 23.9 290.6 23.1Q291.1 22.2 291.6 21.3Q292 20.3 292.2 19.3Q292.5 18.3 292.5 17.6Q292.5 17 292.3 16.6Q292 16.3 291.5 16.3Q290.9 16.3 290.2 16.7Q289.6 17.2 289 17.9Q288.5 18.7 288 19.6Q287.6 20.6 287.3 21.5Q287 22.5 287 23.3Q287 24 287.4 24.5Q287.8 24.9 288.4 24.9ZM299 26.2Q298.4 26.2 298.1 25.9Q297.8 25.6 297.8 24.9Q297.8 24.3 298 23.6Q298.2 23 298.6 22L299.5 19.4Q299.7 18.6 299.9 18.1Q300 17.6 300 17.4Q300 17.1 299.9 17Q299.8 16.9 299.7 16.9Q299.4 16.9 299 17.3Q298.7 17.6 298.4 18Q298.1 18.4 298 18.6L297.4 18.3Q297.6 17.8 298 17.3Q298.5 16.8 299 16.3Q299.6 15.8 300.1 15.5Q300.7 15.2 301.2 15.2Q301.7 15.2 302 15.5Q302.2 15.8 302.2 16.5Q302.2 16.9 302.1 17.5Q301.9 18.1 301.6 18.8Q301.4 19.6 301 20.6L300.2 22.6Q300.2 22.8 300.1 23.1Q300 23.4 299.9 23.7Q299.8 24 299.8 24.2Q299.8 24.4 299.9 24.5Q300 24.7 300.2 24.7Q300.5 24.7 300.9 24.4Q301.2 24.2 301.5 23.8Q301.8 23.5 302 23.1Q302.3 22.8 302.4 22.6L303 22.9Q302.7 23.4 302.3 24Q301.9 24.5 301.4 25Q300.9 25.6 300.3 25.9Q299.6 26.2 299 26.2ZM302.4 11.9Q301.9 11.9 301.5 11.6Q301.2 11.2 301.2 10.7Q301.2 10.2 301.5 9.8Q301.9 9.4 302.4 9.4Q303 9.4 303.3 9.8Q303.7 10.2 303.7 10.7Q303.7 11.2 303.3 11.6Q302.9 11.9 302.4 11.9ZM312.2 16.2Q311.7 16.2 311.1 16.7Q310.5 17.2 309.9 18Q309.3 18.9 308.7 19.9Q308.1 20.9 307.7 22L306.2 26H304.5L305.9 21.4Q306.4 20 306.7 19.1Q307 18.1 307.1 17.6Q307.2 17.1 307.2 16.8Q307.2 16.3 306.9 16.3Q306.6 16.3 306.1 16.8Q305.7 17.2 305.3 18Q304.9 18.7 304.7 19.5L304.1 19.2Q304.8 17.2 305.6 16.2Q306.5 15.2 307.6 15.2Q308.3 15.2 308.5 15.6Q308.8 15.9 308.8 16.8Q308.8 17.3 308.7 17.7Q308.6 18.2 308.5 18.6L308.5 18.7Q309.2 17.5 309.9 16.7Q310.6 15.9 311.3 15.6Q312.1 15.2 312.9 15.2Q313.8 15.2 314.2 15.6Q314.7 16 314.7 16.8Q314.7 17.2 314.6 17.6Q314.5 18.1 314.3 18.8Q314 19.6 313.6 20.8Q313.2 22.1 312.9 23Q312.6 24 312.6 24.3Q312.6 24.6 312.8 24.6Q313 24.6 313.6 24.2Q314.1 23.7 315 22.7L315.6 23Q315.2 23.6 314.7 24.1Q314.2 24.7 313.7 25.2Q313.1 25.6 312.6 25.9Q312 26.2 311.6 26.2Q311.1 26.2 310.8 25.8Q310.6 25.3 310.6 24.6Q310.6 24.3 310.6 24Q310.7 23.7 310.8 23.2Q311 22.7 311.3 21.8Q311.6 20.8 312.1 19.3Q312.5 18.3 312.6 17.8Q312.8 17.3 312.8 17Q312.8 16.6 312.6 16.4Q312.5 16.2 312.2 16.2ZM319.7 31.2Q318.2 31.2 317.1 30.8Q316 30.5 315.4 29.9Q314.8 29.2 314.8 28.4Q314.8 27.6 315.3 27Q315.8 26.5 316.6 26.5Q316.9 26.5 317.1 26.5Q317.3 26.6 317.7 26.8Q317.1 27 316.8 27.4Q316.5 27.9 316.5 28.5Q316.5 29.3 317.4 29.8Q318.3 30.3 319.7 30.3Q320.8 30.3 321.6 30Q322.5 29.7 322.9 29.2Q323.4 28.8 323.4 28.3Q323.4 28 323.1 27.6Q322.8 27.3 322.2 27.1Q321.7 26.8 320.8 26.7Q319.8 26.5 319 26.3Q318.2 26 317.6 25.8Q317.1 25.5 316.9 25.2Q316.6 24.8 316.6 24.4Q316.6 23.8 317.1 23.4Q317.6 23 319 22.6L319 22.5Q318.2 22 317.9 21.3Q317.5 20.6 317.5 19.7Q317.5 18.5 318.1 17.5Q318.8 16.4 319.9 15.8Q321 15.2 322.2 15.2Q323.7 15.2 324.7 16.3Q325.2 15.7 325.6 15.5Q326.1 15.2 326.5 15.2Q327.2 15.2 327.7 15.6Q328.1 16 328.1 16.5Q328.1 16.9 327.9 17.2Q327.6 17.4 327.2 17.4Q326.9 17.4 326.7 17.3Q326.6 17.2 326.4 17Q326.3 16.9 326.2 16.7Q326 16.6 325.8 16.6Q325.6 16.6 325.5 16.6Q325.4 16.7 325.1 16.9Q325.2 17.4 325.2 18.1Q325.2 20.3 324 21.6Q322.8 22.9 320.7 23.1Q319.7 23.1 319.3 23.3Q318.9 23.5 318.9 23.8Q318.9 24.2 319.3 24.4Q319.8 24.6 320.4 24.8Q321.1 24.9 321.9 25Q322.7 25.2 323.4 25.4Q324.1 25.7 324.5 26.2Q325 26.7 325 27.5Q325 28.6 324.3 29.4Q323.7 30.3 322.5 30.7Q321.3 31.2 319.7 31.2ZM320.8 22.2Q321.2 22.2 321.7 21.8Q322.2 21.4 322.5 20.8Q322.9 20.2 323.1 19.4Q323.3 18.6 323.3 17.7Q323.3 16.9 323 16.5Q322.6 16 322 16Q321.6 16 321.1 16.4Q320.6 16.8 320.2 17.4Q319.8 18.1 319.6 18.9Q319.4 19.7 319.4 20.5Q319.4 21.2 319.8 21.7Q320.1 22.2 320.8 22.2ZM334.9 26.2Q333.9 26.2 333.3 25.4Q332.8 24.6 332.8 23.3Q332.8 22.2 333.1 21Q333.5 19.9 334.1 18.9Q334.8 17.8 335.6 17Q336.4 16.2 337.3 15.7Q338.2 15.2 339.1 15.2Q340.4 15.2 340.8 16.5L341.3 15.4H342.9L341.8 18.5Q341.5 19.2 341.2 20.1Q341 20.9 340.8 21.8Q340.5 22.6 340.4 23.2Q340.3 23.8 340.3 24.2Q340.3 24.8 340.7 24.8Q341 24.8 341.5 24.2Q342 23.6 342.7 22.7L343.2 23.1Q342.4 24.6 341.4 25.4Q340.4 26.2 339.5 26.2Q339.1 26.2 338.8 25.9Q338.6 25.5 338.6 24.7Q338.6 24.5 338.6 24.3Q338.6 24 338.6 23.6L338.5 23.6Q338.2 24.4 337.6 24.9Q337 25.5 336.3 25.9Q335.6 26.2 334.9 26.2ZM335.8 24.8Q336.3 24.8 336.9 24.3Q337.5 23.8 338.1 22.9Q338.6 22.1 339.1 21.1Q339.5 20.1 339.8 19.1Q340 18.1 340 17.4Q340 16.8 339.8 16.5Q339.6 16.2 339.2 16.2Q338.6 16.2 337.9 16.7Q337.3 17.1 336.7 17.9Q336.1 18.6 335.7 19.6Q335.2 20.5 334.9 21.4Q334.7 22.4 334.7 23.2Q334.7 23.9 335 24.4Q335.3 24.8 335.8 24.8ZM346 26.2Q345.4 26.2 345 25.9Q344.7 25.6 344.7 24.9Q344.7 24.5 344.9 23.8Q345 23.1 345.3 22L346.8 17.1H345.1L345.4 16.1H347.1L348.1 12.7H350L348.9 16.1H351.1L350.8 17.1H348.7L347 22.6Q346.8 23.1 346.8 23.5Q346.7 23.9 346.6 24.2Q346.6 24.4 346.7 24.5Q346.8 24.7 347 24.7Q347.4 24.7 347.8 24.4Q348.2 24.1 348.6 23.8Q348.9 23.4 349.2 23Q349.5 22.6 349.7 22.4L350.2 22.7Q349.9 23.4 349.4 24Q348.9 24.7 348.3 25.1Q347.7 25.6 347.1 25.9Q346.5 26.2 346 26.2ZM358.5 26.2Q357.8 26.2 357.5 25.9Q357.2 25.6 357.2 24.9Q357.2 24.5 357.3 23.8Q357.5 23.1 357.8 22L359.3 17.1H357.6L357.8 16.1H359.6L360.6 12.7H362.5L361.4 16.1H363.6L363.3 17.1H361.1L359.5 22.6Q359.3 23.1 359.2 23.5Q359.1 23.9 359.1 24.2Q359.1 24.4 359.2 24.5Q359.3 24.7 359.5 24.7Q359.9 24.7 360.3 24.4Q360.7 24.1 361.1 23.8Q361.4 23.4 361.7 23Q362 22.6 362.1 22.4L362.7 22.7Q362.4 23.4 361.9 24Q361.4 24.7 360.8 25.1Q360.2 25.6 359.6 25.9Q359 26.2 358.5 26.2ZM370.8 19.8Q371 19.1 371.2 18.6Q371.3 18.1 371.4 17.8Q371.4 17.4 371.4 17.1Q371.4 16.6 371.3 16.4Q371.1 16.3 370.8 16.3Q370 16.3 369.2 17.1Q368.4 18 367.5 19.8Q366.7 21.7 365.7 24.6L365.2 26H363.5L367.5 12.4Q367.6 11.9 367.7 11.6Q367.8 11.2 367.8 11Q367.8 10.6 367.4 10.4Q367 10.2 366 10.2L366.2 9.4H370.2L368 17.1L368 17.2Q368.7 16.2 369.5 15.7Q370.3 15.2 371.3 15.2Q372.2 15.2 372.7 15.8Q373.2 16.3 373.2 17.4Q373.2 18 373 18.9Q372.8 19.8 372.4 20.9Q372 22 371.8 22.6Q371.6 23.3 371.5 23.6Q371.4 23.9 371.3 24Q371.3 24.1 371.3 24.2Q371.3 24.7 371.7 24.7Q372.1 24.7 372.7 24.2Q373.3 23.7 373.9 22.9L374.4 23.3Q374 24.1 373.3 24.8Q372.6 25.4 371.9 25.8Q371.1 26.2 370.4 26.2Q369.9 26.2 369.6 25.9Q369.4 25.6 369.4 24.9Q369.4 24.5 369.5 23.9Q369.6 23.4 369.9 22.4Q370.2 21.4 370.8 19.8ZM378.3 26.2Q376.9 26.2 376.2 25.3Q375.4 24.5 375.4 22.9Q375.4 21.8 375.8 20.7Q376.2 19.6 376.8 18.6Q377.5 17.6 378.3 16.9Q379.1 16.1 380 15.7Q380.9 15.2 381.8 15.2Q382.8 15.2 383.4 15.7Q384 16.2 384 16.9Q384 17.6 383.5 18.4Q383 19.1 382.1 19.8Q381.2 20.5 380 21Q378.8 21.5 377.5 21.8Q377.4 22.1 377.4 22.4Q377.4 22.6 377.4 22.9Q377.4 24 377.8 24.5Q378.2 25.1 378.9 25.1Q379.7 25.1 380.5 24.5Q381.3 23.9 381.9 22.9L382.6 23.3Q381.7 24.7 380.6 25.5Q379.5 26.2 378.3 26.2ZM377.7 20.9Q379 20.6 380 19.9Q381 19.3 381.6 18.6Q382.1 17.8 382.1 17Q382.1 16.1 381.4 16.1Q380.9 16.1 380.4 16.5Q379.8 16.9 379.3 17.6Q378.8 18.3 378.4 19.1Q377.9 20 377.7 20.9ZM392.9 26.2Q391.6 26.2 390.8 25.3Q390.1 24.5 390.1 22.9Q390.1 21.8 390.4 20.7Q390.8 19.6 391.4 18.6Q392.1 17.6 392.9 16.9Q393.7 16.1 394.6 15.7Q395.5 15.2 396.5 15.2Q397.4 15.2 398 15.7Q398.6 16.2 398.6 16.9Q398.6 17.6 398.1 18.4Q397.6 19.1 396.7 19.8Q395.8 20.5 394.6 21Q393.4 21.5 392.1 21.8Q392.1 22.1 392 22.4Q392 22.6 392 22.9Q392 24 392.4 24.5Q392.8 25.1 393.6 25.1Q394.3 25.1 395.1 24.5Q395.9 23.9 396.6 22.9L397.2 23.3Q396.3 24.7 395.2 25.5Q394.2 26.2 392.9 26.2ZM392.3 20.9Q393.6 20.6 394.6 19.9Q395.6 19.3 396.2 18.6Q396.8 17.8 396.8 17Q396.8 16.1 396.1 16.1Q395.5 16.1 395 16.5Q394.4 16.9 393.9 17.6Q393.4 18.3 393 19.1Q392.6 20 392.3 20.9ZM401.5 26.2Q400.9 26.2 400.3 25.8Q399.8 25.4 399.4 24.7Q399.1 24 399.1 23.1Q399.1 22 399.5 20.9Q399.9 19.8 400.5 18.8Q401.2 17.8 402 17Q402.8 16.2 403.7 15.7Q404.6 15.2 405.4 15.2Q406.1 15.2 406.4 15.5Q406.8 15.7 407.1 16.3L408.3 12.2Q408.4 11.6 408.5 11.3Q408.6 10.9 408.6 10.7Q408.6 10.4 408.2 10.3Q407.8 10.2 406.7 10.2L407 9.4H410.8L408.6 17.5Q408 19.6 407.7 20.9Q407.4 22.2 407.3 22.9Q407.2 23.6 407.2 24Q407.2 24.5 407.3 24.7Q407.5 24.9 407.7 24.9Q408.1 24.9 408.6 24.1Q409.1 23.4 409.5 22.2L410.3 22.4Q409.6 24.3 408.8 25.3Q408 26.2 407 26.2Q406.2 26.2 405.9 25.7Q405.5 25.3 405.5 24.4Q405.5 24.2 405.5 24Q405.5 23.7 405.6 23.5L405.4 23.5Q404.9 24.3 404.3 24.9Q403.6 25.6 402.9 25.9Q402.2 26.2 401.5 26.2ZM402.4 24.9Q402.9 24.9 403.5 24.4Q404.1 23.9 404.6 23.1Q405.2 22.2 405.6 21.3Q406 20.3 406.3 19.3Q406.5 18.3 406.5 17.6Q406.5 17 406.3 16.6Q406 16.3 405.5 16.3Q404.9 16.3 404.3 16.7Q403.6 17.2 403.1 17.9Q402.5 18.7 402 19.6Q401.6 20.6 401.3 21.5Q401.1 22.5 401.1 23.3Q401.1 24 401.4 24.5Q401.8 24.9 402.4 24.9ZM414.3 31.2Q412.8 31.2 411.7 30.8Q410.6 30.5 410 29.9Q409.4 29.2 409.4 28.4Q409.4 27.6 409.9 27Q410.4 26.5 411.2 26.5Q411.5 26.5 411.7 26.5Q411.9 26.6 412.3 26.8Q411.7 27 411.4 27.4Q411.1 27.9 411.1 28.5Q411.1 29.3 412 29.8Q412.9 30.3 414.3 30.3Q415.4 30.3 416.2 30Q417.1 29.7 417.5 29.2Q418 28.8 418 28.3Q418 28 417.7 27.6Q417.4 27.3 416.8 27.1Q416.3 26.8 415.4 26.7Q414.4 26.5 413.6 26.3Q412.8 26 412.2 25.8Q411.7 25.5 411.5 25.2Q411.2 24.8 411.2 24.4Q411.2 23.8 411.7 23.4Q412.2 23 413.6 22.6L413.6 22.5Q412.8 22 412.5 21.3Q412.1 20.6 412.1 19.7Q412.1 18.5 412.7 17.5Q413.4 16.4 414.5 15.8Q415.6 15.2 416.8 15.2Q418.3 15.2 419.3 16.3Q419.8 15.7 420.2 15.5Q420.7 15.2 421.1 15.2Q421.8 15.2 422.3 15.6Q422.7 16 422.7 16.5Q422.7 16.9 422.5 17.2Q422.2 17.4 421.8 17.4Q421.5 17.4 421.3 17.3Q421.2 17.2 421 17Q420.9 16.9 420.8 16.7Q420.6 16.6 420.4 16.6Q420.2 16.6 420.1 16.6Q420 16.7 419.7 16.9Q419.8 17.4 419.8 18.1Q419.8 20.3 418.6 21.6Q417.4 22.9 415.3 23.1Q414.3 23.1 413.9 23.3Q413.5 23.5 413.5 23.8Q413.5 24.2 413.9 24.4Q414.4 24.6 415.1 24.8Q415.7 24.9 416.5 25Q417.3 25.2 418 25.4Q418.7 25.7 419.1 26.2Q419.6 26.7 419.6 27.5Q419.6 28.6 418.9 29.4Q418.3 30.3 417.1 30.7Q415.9 31.2 414.3 31.2ZM415.4 22.2Q415.8 22.2 416.3 21.8Q416.8 21.4 417.1 20.8Q417.5 20.2 417.7 19.4Q417.9 18.6 417.9 17.7Q417.9 16.9 417.6 16.5Q417.2 16 416.6 16Q416.2 16 415.7 16.4Q415.2 16.8 414.8 17.4Q414.4 18.1 414.2 18.9Q414 19.7 414 20.5Q414 21.2 414.4 21.7Q414.7 22.2 415.4 22.2ZM425 26.2Q423.6 26.2 422.9 25.3Q422.1 24.5 422.1 22.9Q422.1 21.8 422.5 20.7Q422.9 19.6 423.5 18.6Q424.2 17.6 425 16.9Q425.8 16.1 426.7 15.7Q427.6 15.2 428.5 15.2Q429.5 15.2 430.1 15.7Q430.7 16.2 430.7 16.9Q430.7 17.6 430.2 18.4Q429.7 19.1 428.8 19.8Q427.9 20.5 426.7 21Q425.5 21.5 424.2 21.8Q424.1 22.1 424.1 22.4Q424.1 22.6 424.1 22.9Q424.1 24 424.5 24.5Q424.9 25.1 425.6 25.1Q426.4 25.1 427.2 24.5Q428 23.9 428.6 22.9L429.3 23.3Q428.4 24.7 427.3 25.5Q426.2 26.2 425 26.2ZM424.4 20.9Q425.7 20.6 426.7 19.9Q427.7 19.3 428.3 18.6Q428.8 17.8 428.8 17Q428.8 16.1 428.1 16.1Q427.6 16.1 427.1 16.5Q426.5 16.9 426 17.6Q425.5 18.3 425.1 19.1Q424.6 20 424.4 20.9ZM440.2 26.2Q439.3 26.2 438.6 25.7Q437.8 25.2 437.4 24.3Q437 23.4 437 22.2Q437 20.9 437.4 19.6Q437.9 18.4 438.7 17.4Q439.6 16.4 440.6 15.8Q441.6 15.2 442.7 15.2Q443.7 15.2 444.4 15.7Q445.2 16.2 445.6 17Q446 17.9 446 19Q446 20.3 445.5 21.6Q445 22.8 444.2 23.9Q443.4 24.9 442.3 25.6Q441.3 26.2 440.2 26.2ZM440.3 25.2Q440.9 25.2 441.4 24.8Q442 24.3 442.4 23.5Q442.9 22.8 443.3 21.8Q443.7 20.9 443.9 19.9Q444.1 18.9 444.1 18Q444.1 16.9 443.7 16.5Q443.3 16.1 442.7 16.1Q442.2 16.1 441.6 16.6Q441.1 17 440.6 17.8Q440.2 18.5 439.8 19.4Q439.5 20.3 439.3 21.3Q439.1 22.3 439.1 23.2Q439.1 24.3 439.4 24.7Q439.8 25.2 440.3 25.2ZM451.7 17 449.8 24.5Q449.3 26.6 448.8 27.9Q448.2 29.2 447.6 29.9Q447 30.6 446.3 30.9Q445.6 31.2 444.8 31.2Q444.2 31.2 443.8 31Q443.4 30.8 443.1 30.5Q442.9 30.1 442.9 29.7Q442.9 29.2 443.1 28.9Q443.4 28.6 443.8 28.6Q444.3 28.6 444.4 28.8Q444.6 29 444.7 29.3Q444.8 29.6 444.9 29.8Q445.1 30 445.5 30Q445.9 30 446.3 29.5Q446.7 29.1 446.9 28.3L449.8 17H447.9L448.1 16.1H450Q450.6 13.7 451.4 12.2Q452.1 10.7 452.9 10.1Q453.8 9.4 454.9 9.4Q456 9.4 456.8 9.9Q457.6 10.4 457.6 11.1Q457.6 11.6 457.3 11.9Q457.1 12.2 456.6 12.2Q456.1 12.2 455.9 12Q455.7 11.8 455.6 11.5L455.5 11Q455.4 10.7 455.2 10.5Q455.1 10.3 454.7 10.3Q454.2 10.3 453.6 11Q453.1 11.8 452.7 13.1Q452.2 14.4 451.9 16.1H453.9L453.6 17ZM458.1 26 458.3 25.2Q459.2 25.2 460 24.5Q460.7 23.9 461 22.8L463.3 14Q463.6 12.9 463.6 12.4Q463.6 11.7 463.2 11.6Q462.7 11.4 461.7 11.4L461.9 10.6H466.7L468.1 22.5H468.2L475.7 10.6H479.9L479.7 11.4Q479 11.4 478.5 11.7Q478.1 11.9 477.8 12.6Q477.5 13.3 477.2 14.7L475.1 22.6Q474.8 23.5 474.8 24Q474.8 24.7 475.3 25Q475.8 25.2 476.9 25.2L476.6 26H470.2L470.5 25.2Q471.2 25.2 471.7 25Q472.1 24.8 472.4 24.3Q472.7 23.8 473 22.8L475.6 12.9H475.5L467.3 26H466.5L464.9 12.9H464.8L462.3 22.6Q462.2 22.9 462.2 23.1Q462.1 23.3 462.1 23.5Q462.1 24.3 462.6 24.8Q463.1 25.2 463.8 25.2L463.6 26ZM478.5 26 478.7 25.2Q479.6 25.2 480.1 25Q480.6 24.8 480.9 24.3Q481.2 23.8 481.4 22.8L483.7 14Q483.8 13.4 483.9 13Q484 12.6 484 12.4Q484 11.7 483.5 11.6Q483.1 11.4 482 11.4L482.2 10.6H488.7L488.5 11.4Q487.6 11.4 487.1 11.7Q486.6 11.9 486.3 12.6Q485.9 13.3 485.6 14.7L483.5 22.6Q483.4 22.9 483.3 23.2Q483.3 23.5 483.3 23.7Q483.3 24.4 483.8 24.8Q484.3 25.1 485.5 25.1Q487.1 25.1 488.2 24.8Q489.2 24.4 489.9 23.6Q490.6 22.8 491.2 21.4H492.1L490.4 26ZM500.4 26.2Q499.4 26.2 498.8 25.4Q498.2 24.6 498.2 23.3Q498.2 22.2 498.6 21Q498.9 19.9 499.6 18.9Q500.2 17.8 501.1 17Q501.9 16.2 502.8 15.7Q503.7 15.2 504.5 15.2Q505.8 15.2 506.3 16.5L506.7 15.4H508.4L507.2 18.5Q506.9 19.2 506.7 20.1Q506.4 20.9 506.2 21.8Q506 22.6 505.9 23.2Q505.7 23.8 505.7 24.2Q505.7 24.8 506.1 24.8Q506.4 24.8 506.9 24.2Q507.5 23.6 508.1 22.7L508.6 23.1Q507.8 24.6 506.8 25.4Q505.9 26.2 505 26.2Q504.5 26.2 504.2 25.9Q504 25.5 504 24.7Q504 24.5 504 24.3Q504 24 504.1 23.6L504 23.6Q503.6 24.4 503 24.9Q502.4 25.5 501.7 25.9Q501 26.2 500.4 26.2ZM501.2 24.8Q501.8 24.8 502.4 24.3Q503 23.8 503.5 22.9Q504.1 22.1 504.5 21.1Q504.9 20.1 505.2 19.1Q505.5 18.1 505.5 17.4Q505.5 16.8 505.2 16.5Q505 16.2 504.6 16.2Q504 16.2 503.4 16.7Q502.7 17.1 502.2 17.9Q501.6 18.6 501.1 19.6Q500.6 20.5 500.4 21.4Q500.1 22.4 500.1 23.2Q500.1 23.9 500.4 24.4Q500.7 24.8 501.2 24.8ZM517.9 16.2Q517.4 16.2 516.8 16.7Q516.2 17.2 515.6 18Q514.9 18.9 514.4 19.9Q513.8 20.9 513.4 22L511.9 26H510.1L511.6 21.4Q512.1 20 512.4 19.1Q512.6 18.1 512.8 17.6Q512.9 17.1 512.9 16.8Q512.9 16.3 512.5 16.3Q512.2 16.3 511.8 16.8Q511.4 17.2 511 18Q510.6 18.7 510.3 19.5L509.7 19.2Q510.4 17.2 511.3 16.2Q512.2 15.2 513.3 15.2Q513.9 15.2 514.2 15.6Q514.5 15.9 514.5 16.8Q514.5 17.3 514.4 17.7Q514.3 18.2 514.1 18.6L514.2 18.7Q514.9 17.5 515.6 16.7Q516.3 15.9 517 15.6Q517.7 15.2 518.6 15.2Q519.4 15.2 519.9 15.6Q520.4 16 520.4 16.8Q520.4 17.2 520.3 17.6Q520.2 18.1 520 18.8Q519.7 19.6 519.3 20.8Q518.8 22.1 518.5 23Q518.2 24 518.2 24.3Q518.2 24.6 518.4 24.6Q518.7 24.6 519.3 24.2Q519.8 23.7 520.7 22.7L521.2 23Q520.9 23.6 520.4 24.1Q519.9 24.7 519.3 25.2Q518.8 25.6 518.2 25.9Q517.7 26.2 517.3 26.2Q516.8 26.2 516.5 25.8Q516.2 25.3 516.2 24.6Q516.2 24.3 516.3 24Q516.3 23.7 516.5 23.2Q516.7 22.7 517 21.8Q517.3 20.8 517.8 19.3Q518.2 18.3 518.3 17.8Q518.4 17.3 518.4 17Q518.4 16.6 518.3 16.4Q518.2 16.2 517.9 16.2ZM524.6 26.2Q523.9 26.2 523.3 25.8Q522.8 25.4 522.5 24.7Q522.2 24 522.2 23.1Q522.2 22 522.5 20.9Q522.9 19.8 523.6 18.8Q524.2 17.8 525 17Q525.8 16.2 526.7 15.7Q527.6 15.2 528.4 15.2Q529.1 15.2 529.5 15.5Q529.8 15.7 530.1 16.3L531.3 12.2Q531.5 11.6 531.5 11.3Q531.6 10.9 531.6 10.7Q531.6 10.4 531.2 10.3Q530.8 10.2 529.8 10.2L530 9.4H533.9L531.6 17.5Q531.1 19.6 530.8 20.9Q530.4 22.2 530.3 22.9Q530.2 23.6 530.2 24Q530.2 24.5 530.3 24.7Q530.5 24.9 530.7 24.9Q531.1 24.9 531.7 24.1Q532.2 23.4 532.6 22.2L533.3 22.4Q532.6 24.3 531.8 25.3Q531 26.2 530 26.2Q529.3 26.2 528.9 25.7Q528.5 25.3 528.5 24.4Q528.5 24.2 528.5 24Q528.6 23.7 528.6 23.5L528.5 23.5Q528 24.3 527.3 24.9Q526.7 25.6 525.9 25.9Q525.2 26.2 524.6 26.2ZM525.4 24.9Q526 24.9 526.5 24.4Q527.1 23.9 527.7 23.1Q528.2 22.2 528.6 21.3Q529.1 20.3 529.3 19.3Q529.6 18.3 529.6 17.6Q529.6 17 529.3 16.6Q529.1 16.3 528.6 16.3Q527.9 16.3 527.3 16.7Q526.7 17.2 526.1 17.9Q525.5 18.7 525.1 19.6Q524.6 20.6 524.4 21.5Q524.1 22.5 524.1 23.3Q524.1 24 524.5 24.5Q524.8 24.9 525.4 24.9ZM540.8 26.2Q540.2 26.2 539.8 25.9Q539.5 25.6 539.5 24.9Q539.5 24.5 539.7 23.8Q539.8 23.1 540.1 22L541.6 17.1H539.9L540.2 16.1H541.9L542.9 12.7H544.8L543.7 16.1H545.9L545.6 17.1H543.5L541.8 22.6Q541.6 23.1 541.5 23.5Q541.5 23.9 541.4 24.2Q541.4 24.4 541.5 24.5Q541.6 24.7 541.8 24.7Q542.2 24.7 542.6 24.4Q543 24.1 543.4 23.8Q543.7 23.4 544 23Q544.3 22.6 544.5 22.4L545 22.7Q544.7 23.4 544.2 24Q543.7 24.7 543.1 25.1Q542.5 25.6 541.9 25.9Q541.3 26.2 540.8 26.2ZM553.1 19.8Q553.4 19.1 553.5 18.6Q553.6 18.1 553.7 17.8Q553.8 17.4 553.8 17.1Q553.8 16.6 553.6 16.4Q553.5 16.3 553.1 16.3Q552.3 16.3 551.5 17.1Q550.7 18 549.8 19.8Q549 21.7 548 24.6L547.5 26H545.9L549.8 12.4Q550 11.9 550 11.6Q550.1 11.2 550.1 11Q550.1 10.6 549.7 10.4Q549.4 10.2 548.3 10.2L548.5 9.4H552.6L550.3 17.1L550.3 17.2Q551 16.2 551.8 15.7Q552.7 15.2 553.6 15.2Q554.5 15.2 555 15.8Q555.5 16.3 555.5 17.4Q555.5 18 555.3 18.9Q555.1 19.8 554.7 20.9Q554.3 22 554.1 22.6Q553.9 23.3 553.8 23.6Q553.7 23.9 553.6 24Q553.6 24.1 553.6 24.2Q553.6 24.7 554 24.7Q554.4 24.7 555 24.2Q555.6 23.7 556.2 22.9L556.7 23.3Q556.3 24.1 555.6 24.8Q554.9 25.4 554.2 25.8Q553.4 26.2 552.7 26.2Q552.2 26.2 552 25.9Q551.7 25.6 551.7 24.9Q551.7 24.5 551.8 23.9Q551.9 23.4 552.2 22.4Q552.5 21.4 553.1 19.8ZM560.6 26.2Q559.3 26.2 558.5 25.3Q557.8 24.5 557.8 22.9Q557.8 21.8 558.1 20.7Q558.5 19.6 559.1 18.6Q559.8 17.6 560.6 16.9Q561.4 16.1 562.3 15.7Q563.2 15.2 564.2 15.2Q565.1 15.2 565.7 15.7Q566.3 16.2 566.3 16.9Q566.3 17.6 565.8 18.4Q565.3 19.1 564.4 19.8Q563.5 20.5 562.3 21Q561.1 21.5 559.8 21.8Q559.8 22.1 559.7 22.4Q559.7 22.6 559.7 22.9Q559.7 24 560.1 24.5Q560.5 25.1 561.3 25.1Q562 25.1 562.8 24.5Q563.6 23.9 564.3 22.9L564.9 23.3Q564 24.7 562.9 25.5Q561.9 26.2 560.6 26.2ZM560 20.9Q561.3 20.6 562.3 19.9Q563.3 19.3 563.9 18.6Q564.5 17.8 564.5 17Q564.5 16.1 563.8 16.1Q563.2 16.1 562.7 16.5Q562.1 16.9 561.6 17.6Q561.1 18.3 560.7 19.1Q560.3 20 560 20.9ZM569.7 31 569.8 30.2Q570.6 30.2 571 30Q571.4 29.8 571.5 29.3L575.2 16.9Q574.4 17.3 573.7 17.9Q573 18.4 572.4 19.1L571.9 18.5Q572.6 17.7 573.5 17Q574.5 16.3 575.5 15.9L576.4 12.7H577.9L577.2 15.4Q577.5 15.3 577.8 15.3Q578.2 15.2 578.5 15.2Q580.2 15.2 581.1 16.1Q582.1 17.1 582.1 18.7Q582.1 20 581.4 21.2Q580.8 22.4 579.8 23.3Q578.7 24.2 577.3 24.8Q576 25.4 574.5 25.6L573.7 28.4Q573.7 28.7 573.6 28.9Q573.6 29.1 573.6 29.3Q573.6 29.8 574 30Q574.4 30.2 575.4 30.2L575.3 31ZM574.7 24.8Q575.7 24.6 576.6 24Q577.6 23.5 578.3 22.7Q579.1 21.9 579.5 20.9Q580 19.9 580 18.8Q580 17.6 579.4 16.9Q578.9 16.2 578 16.2Q577.7 16.2 577.4 16.2Q577.2 16.3 577 16.3ZM589.9 19.8Q590.1 19.1 590.3 18.6Q590.4 18.1 590.5 17.8Q590.5 17.4 590.5 17.1Q590.5 16.6 590.4 16.4Q590.2 16.3 589.9 16.3Q589 16.3 588.2 17.1Q587.4 18 586.6 19.8Q585.7 21.7 584.8 24.6L584.3 26H582.6L586.6 12.4Q586.7 11.9 586.8 11.6Q586.9 11.2 586.9 11Q586.9 10.6 586.5 10.4Q586.1 10.2 585.1 10.2L585.2 9.4H589.3L587 17.1L587.1 17.2Q587.7 16.2 588.6 15.7Q589.4 15.2 590.3 15.2Q591.3 15.2 591.8 15.8Q592.3 16.3 592.3 17.4Q592.3 18 592.1 18.9Q591.9 19.8 591.5 20.9Q591.1 22 590.9 22.6Q590.6 23.3 590.5 23.6Q590.4 23.9 590.4 24Q590.4 24.1 590.4 24.2Q590.4 24.7 590.8 24.7Q591.2 24.7 591.8 24.2Q592.3 23.7 592.9 22.9L593.5 23.3Q593.1 24.1 592.4 24.8Q591.7 25.4 590.9 25.8Q590.2 26.2 589.5 26.2Q589 26.2 588.7 25.9Q588.5 25.6 588.5 24.9Q588.5 24.5 588.6 23.9Q588.7 23.4 589 22.4Q589.3 21.4 589.9 19.8ZM593.7 31.2Q592.9 31.2 592.4 30.7Q591.9 30.3 591.9 29.6Q591.9 29.1 592.1 28.8Q592.4 28.5 592.9 28.5Q593.3 28.5 593.5 28.7Q593.7 29 593.8 29.2Q593.9 29.5 594 29.8Q594.2 30 594.4 30Q594.8 30 595.4 29.6Q596 29.2 596.6 28.5Q597.2 27.9 597.7 27.1Q598.2 26.4 598.4 25.8L597.3 20.2Q596.9 18.5 596.6 17.9Q596.3 17.3 596 17.3Q595.6 17.3 595.3 17.8Q595 18.4 594.6 19.6L593.9 19.4Q594.2 18.2 594.6 17.2Q595.1 16.3 595.7 15.7Q596.3 15.2 596.9 15.2Q597.2 15.2 597.5 15.5Q597.8 15.8 598.1 16.5Q598.3 17.1 598.6 18.2Q598.9 19.3 599.2 20.6L599.8 23.8H599.9Q600.4 23.2 600.9 22.3Q601.4 21.5 601.8 20.6Q602.1 19.6 602.1 18.8Q602.1 18.5 602.1 18.1Q602.1 17.7 602 17.2Q602 16.8 602 16.6Q602 15.9 602.3 15.5Q602.7 15.2 603.1 15.2Q603.6 15.2 603.9 15.6Q604.1 16.1 604.1 16.7Q604.1 17.3 603.8 18.3Q603.5 19.2 603 20.4Q602.5 21.5 601.9 22.7Q601.2 23.9 600.5 25.1Q599.7 26.3 598.9 27.3Q597.4 29.3 596.1 30.2Q594.8 31.2 593.7 31.2ZM605.9 18.3Q605.9 17.4 606.3 16.7Q606.8 16 607.5 15.6Q608.3 15.2 609.2 15.2Q610.2 15.2 610.8 15.7Q611.5 16.2 611.5 16.9Q611.5 17.3 611.2 17.6Q611 17.8 610.6 17.8Q610.2 17.8 609.9 17.6Q609.7 17.3 609.6 16.9Q609.5 16.6 609.3 16.3Q609.2 16.1 608.8 16.1Q608.3 16.1 608 16.4Q607.7 16.8 607.7 17.4Q607.7 17.9 608 18.4Q608.2 18.9 608.6 19.3Q609 19.8 609.4 20.3Q609.8 20.8 610 21.5Q610.3 22.1 610.3 22.9Q610.3 23.8 609.8 24.6Q609.3 25.3 608.5 25.8Q607.7 26.2 606.7 26.2Q605.6 26.2 604.8 25.7Q604.1 25.2 604.1 24.3Q604.1 23.7 604.4 23.4Q604.7 23.1 605.1 23.1Q606 23.1 606.1 24.3Q606.2 24.9 606.3 25.1Q606.5 25.3 606.9 25.3Q607.6 25.3 608.1 24.9Q608.5 24.4 608.5 23.7Q608.5 23.1 608.2 22.5Q608 22 607.6 21.5Q607.2 21.1 606.8 20.6Q606.4 20.1 606.2 19.6Q605.9 19 605.9 18.3ZM614.1 26.2Q613.6 26.2 613.3 25.9Q613 25.6 613 24.9Q613 24.3 613.2 23.6Q613.4 23 613.7 22L614.6 19.4Q614.9 18.6 615 18.1Q615.1 17.6 615.1 17.4Q615.1 17.1 615 17Q615 16.9 614.9 16.9Q614.6 16.9 614.2 17.3Q613.8 17.6 613.5 18Q613.2 18.4 613.1 18.6L612.5 18.3Q612.8 17.8 613.2 17.3Q613.6 16.8 614.2 16.3Q614.7 15.8 615.3 15.5Q615.9 15.2 616.4 15.2Q616.9 15.2 617.1 15.5Q617.4 15.8 617.4 16.5Q617.4 16.9 617.2 17.5Q617.1 18.1 616.8 18.8Q616.5 19.6 616.1 20.6L615.4 22.6Q615.4 22.8 615.2 23.1Q615.1 23.4 615.1 23.7Q615 24 615 24.2Q615 24.4 615.1 24.5Q615.2 24.7 615.4 24.7Q615.7 24.7 616 24.4Q616.3 24.2 616.6 23.8Q617 23.5 617.2 23.1Q617.4 22.8 617.5 22.6L618.1 22.9Q617.9 23.4 617.5 24Q617.1 24.5 616.6 25Q616 25.6 615.4 25.9Q614.8 26.2 614.1 26.2ZM617.6 11.9Q617.1 11.9 616.7 11.6Q616.3 11.2 616.3 10.7Q616.3 10.2 616.7 9.8Q617 9.4 617.6 9.4Q618.1 9.4 618.5 9.8Q618.8 10.2 618.8 10.7Q618.8 11.2 618.5 11.6Q618.1 11.9 617.6 11.9ZM625.6 22.4 626.3 22.8Q625.5 24.4 624.4 25.3Q623.3 26.2 622 26.2Q621.2 26.2 620.5 25.8Q619.9 25.4 619.5 24.6Q619.2 23.9 619.2 22.9Q619.2 21.9 619.5 20.8Q619.9 19.7 620.5 18.7Q621.1 17.7 621.9 16.9Q622.7 16.1 623.6 15.7Q624.4 15.2 625.3 15.2Q626.2 15.2 626.8 15.7Q627.5 16.2 627.5 17Q627.5 17.5 627.2 17.8Q626.9 18.1 626.4 18.1Q626 18.1 625.7 17.9Q625.4 17.6 625.4 17.1Q625.4 16.9 625.5 16.7Q625.6 16.6 625.6 16.4Q625.6 16.3 625.4 16.2Q625.3 16.1 625.1 16.1Q624.4 16.1 623.7 16.8Q623.1 17.4 622.5 18.4Q621.9 19.4 621.6 20.6Q621.3 21.8 621.3 23Q621.3 23.9 621.6 24.5Q622 25 622.7 25Q623.1 25 623.7 24.7Q624.2 24.3 624.7 23.7Q625.2 23.1 625.6 22.4ZM630.1 26.2Q629.1 26.2 628.5 25.4Q627.9 24.6 627.9 23.3Q627.9 22.2 628.3 21Q628.6 19.9 629.3 18.9Q629.9 17.8 630.8 17Q631.6 16.2 632.5 15.7Q633.4 15.2 634.2 15.2Q635.5 15.2 636 16.5L636.4 15.4H638.1L636.9 18.5Q636.6 19.2 636.4 20.1Q636.1 20.9 635.9 21.8Q635.7 22.6 635.6 23.2Q635.4 23.8 635.4 24.2Q635.4 24.8 635.8 24.8Q636.1 24.8 636.6 24.2Q637.2 23.6 637.8 22.7L638.3 23.1Q637.5 24.6 636.5 25.4Q635.6 26.2 634.7 26.2Q634.2 26.2 633.9 25.9Q633.7 25.5 633.7 24.7Q633.7 24.5 633.7 24.3Q633.7 24 633.8 23.6L633.7 23.6Q633.3 24.4 632.7 24.9Q632.1 25.5 631.4 25.9Q630.7 26.2 630.1 26.2ZM630.9 24.8Q631.5 24.8 632.1 24.3Q632.7 23.8 633.2 22.9Q633.8 22.1 634.2 21.1Q634.6 20.1 634.9 19.1Q635.2 18.1 635.2 17.4Q635.2 16.8 634.9 16.5Q634.7 16.2 634.3 16.2Q633.7 16.2 633.1 16.7Q632.4 17.1 631.9 17.9Q631.3 18.6 630.8 19.6Q630.3 20.5 630.1 21.4Q629.8 22.4 629.8 23.2Q629.8 23.9 630.1 24.4Q630.4 24.8 630.9 24.8ZM640.9 26.2Q640.2 26.2 639.9 25.9Q639.6 25.6 639.6 24.9Q639.6 24.5 639.7 23.8Q639.8 23.1 640.1 22L642.8 12.2Q642.9 11.8 643 11.4Q643.1 11.1 643.1 10.9Q643.1 10.2 641.5 10.2L641.7 9.6L645.4 9.4L641.8 22.6Q641.6 23.1 641.5 23.5Q641.5 23.9 641.5 24.2Q641.5 24.4 641.6 24.5Q641.7 24.7 641.9 24.7Q642.2 24.7 642.6 24.4Q642.9 24.1 643.2 23.8Q643.6 23.4 643.8 23Q644.1 22.6 644.2 22.4L644.8 22.7Q644.4 23.6 643.7 24.4Q643 25.2 642.3 25.7Q641.5 26.2 640.9 26.2ZM654 26.2Q652.9 26.2 652.3 25.5Q651.7 24.8 651.7 23.5Q651.7 22.3 652.3 20.8Q653 19.3 654.2 17.5L654.2 17.5Q653.7 17.5 653.3 17.3Q652.9 17.1 652.7 16.9Q652.5 16.7 652.3 16.6Q652.1 16.4 651.8 16.4Q651.5 16.4 651.5 16.8Q651.5 17 651.7 17.2Q651.9 17.4 652 17.6Q652.2 17.8 652.2 18.1Q652.2 18.4 651.9 18.7Q651.7 18.9 651.2 18.9Q650.7 18.9 650.4 18.6Q650.1 18.2 650.1 17.7Q650.1 17 650.5 16.5Q650.8 15.9 651.4 15.6Q652 15.2 652.6 15.2Q653.2 15.2 653.5 15.4Q653.8 15.6 654.1 15.8Q654.4 16.1 654.8 16.1Q655 16.1 655.1 16Q655.2 15.9 655.4 15.8Q655.6 15.5 655.9 15.4Q656.1 15.2 656.4 15.2Q656.8 15.2 656.8 15.6Q656.8 15.7 656.6 15.9Q656.5 16.1 656 16.7Q655.2 17.6 654.7 18.7Q654.1 19.7 653.8 20.7Q653.6 21.8 653.6 22.6Q653.6 23.6 653.9 24.2Q654.2 24.7 654.8 24.7Q655.3 24.7 656 24.2Q656.8 23.7 657.6 22.7Q657.5 22.3 657.5 21.8Q657.5 21.4 657.5 21Q657.5 20 657.7 18.9Q658 17.9 658.4 17Q658.8 16.2 659.3 15.7Q659.8 15.2 660.4 15.2Q660.8 15.2 661.1 15.6Q661.5 16 661.5 16.9Q661.5 17.6 661.2 18.4Q661 19.3 660.5 20.3Q660 21.3 659.2 22.3Q659.4 23.3 659.9 23.9Q660.4 24.5 661 24.5Q661.5 24.5 662.1 24Q662.7 23.5 663.2 22.6Q663.7 21.8 664 20.8Q664.3 19.9 664.3 18.9Q664.3 18.3 664.2 17.9Q664.1 17.5 663.9 17.1Q663.8 16.8 663.8 16.3Q663.8 15.8 664.1 15.5Q664.4 15.2 664.9 15.2Q665.5 15.2 665.7 15.7Q666 16.1 666 17.2Q666 18.5 665.7 19.8Q665.3 21.1 664.8 22.2Q664.2 23.4 663.4 24.3Q662.7 25.2 661.9 25.7Q661 26.2 660.2 26.2Q659.4 26.2 658.8 25.6Q658.2 25.1 657.8 24.1Q657 25.1 656 25.6Q655 26.2 654 26.2ZM659 21.1Q659.5 20.2 659.8 19.3Q660.1 18.5 660.1 17.6Q660.1 16.8 659.8 16.8Q659.6 16.8 659.4 17.3Q659.1 17.7 659 18.4Q658.9 19.2 658.9 20.1Q658.9 20.3 658.9 20.6Q658.9 20.8 659 21.1ZM670.4 26.2Q669.5 26.2 668.8 25.7Q668.1 25.2 667.6 24.3Q667.2 23.4 667.2 22.2Q667.2 20.9 667.7 19.6Q668.1 18.4 669 17.4Q669.8 16.4 670.8 15.8Q671.8 15.2 672.9 15.2Q673.9 15.2 674.6 15.7Q675.4 16.2 675.8 17Q676.2 17.9 676.2 19Q676.2 20.3 675.7 21.6Q675.2 22.8 674.4 23.9Q673.6 24.9 672.5 25.6Q671.5 26.2 670.4 26.2ZM670.6 25.2Q671.1 25.2 671.6 24.8Q672.2 24.3 672.7 23.5Q673.1 22.8 673.5 21.8Q673.9 20.9 674.1 19.9Q674.3 18.9 674.3 18Q674.3 16.9 673.9 16.5Q673.6 16.1 672.9 16.1Q672.4 16.1 671.8 16.6Q671.3 17 670.9 17.8Q670.4 18.5 670 19.4Q669.7 20.3 669.5 21.3Q669.3 22.3 669.3 23.2Q669.3 24.3 669.6 24.7Q670 25.2 670.6 25.2ZM678.1 18.4 677.6 18.2Q677.8 17.7 678.2 17.2Q678.7 16.6 679.2 16.2Q679.8 15.7 680.3 15.5Q680.8 15.2 681.2 15.2Q681.7 15.2 681.9 15.6Q682.2 15.9 682.2 16.7Q682.2 17.3 682 18L682.1 18.1Q682.4 17.3 683 16.6Q683.7 15.9 684.4 15.4Q685.1 15 685.7 15Q686.3 15 686.7 15.4Q687.1 15.7 687.1 16.3Q687.1 16.8 686.8 17.1Q686.4 17.5 685.9 17.5Q685.5 17.5 685.3 17.3Q685.1 17.1 684.9 16.9Q684.8 16.7 684.5 16.7Q684 16.7 683.3 17.6Q682.6 18.5 681.9 20Q681.2 21.4 680.6 23.2L679.7 26H677.8L679.1 21.9Q679.6 20.3 679.9 19.3Q680.2 18.4 680.3 18Q680.4 17.5 680.4 17.2Q680.4 17 680.3 16.9Q680.2 16.8 680.1 16.8Q679.8 16.8 679.4 17Q679 17.3 678.6 17.7Q678.3 18.1 678.1 18.4ZM688.1 26.2Q687.4 26.2 687.1 25.9Q686.7 25.6 686.7 24.9Q686.7 24.5 686.8 23.8Q687 23.1 687.3 22L689.9 12.2Q690 11.8 690.1 11.4Q690.2 11.1 690.2 10.9Q690.2 10.2 688.7 10.2L688.9 9.6L692.5 9.4L688.9 22.6Q688.8 23.1 688.7 23.5Q688.6 23.9 688.6 24.2Q688.6 24.4 688.7 24.5Q688.8 24.7 689 24.7Q689.4 24.7 689.7 24.4Q690.1 24.1 690.4 23.8Q690.7 23.4 691 23Q691.3 22.6 691.4 22.4L692 22.7Q691.6 23.6 690.9 24.4Q690.2 25.2 689.4 25.7Q688.7 26.2 688.1 26.2ZM695.2 26.2Q694.5 26.2 693.9 25.8Q693.4 25.4 693.1 24.7Q692.7 24 692.7 23.1Q692.7 22 693.1 20.9Q693.5 19.8 694.1 18.8Q694.8 17.8 695.6 17Q696.4 16.2 697.3 15.7Q698.2 15.2 699 15.2Q699.7 15.2 700 15.5Q700.4 15.7 700.7 16.3L701.9 12.2Q702 11.6 702.1 11.3Q702.2 10.9 702.2 10.7Q702.2 10.4 701.8 10.3Q701.4 10.2 700.4 10.2L700.6 9.4H704.4L702.2 17.5Q701.7 19.6 701.3 20.9Q701 22.2 700.9 22.9Q700.8 23.6 700.8 24Q700.8 24.5 700.9 24.7Q701.1 24.9 701.3 24.9Q701.7 24.9 702.2 24.1Q702.8 23.4 703.1 22.2L703.9 22.4Q703.2 24.3 702.4 25.3Q701.6 26.2 700.6 26.2Q699.9 26.2 699.5 25.7Q699.1 25.3 699.1 24.4Q699.1 24.2 699.1 24Q699.2 23.7 699.2 23.5L699.1 23.5Q698.6 24.3 697.9 24.9Q697.2 25.6 696.5 25.9Q695.8 26.2 695.2 26.2ZM696 24.9Q696.5 24.9 697.1 24.4Q697.7 23.9 698.2 23.1Q698.8 22.2 699.2 21.3Q699.6 20.3 699.9 19.3Q700.1 18.3 700.1 17.6Q700.1 17 699.9 16.6Q699.7 16.3 699.1 16.3Q698.5 16.3 697.9 16.7Q697.2 17.2 696.7 17.9Q696.1 18.7 695.6 19.6Q695.2 20.6 694.9 21.5Q694.7 22.5 694.7 23.3Q694.7 24 695 24.5Q695.4 24.9 696 24.9ZM705.9 25.9Q705.8 26 705.7 26Q705.6 26 705.5 26Q705 26 704.7 25.7Q704.5 25.3 704.5 24.8Q704.5 24.2 704.9 23.8Q705.3 23.4 705.8 23.4Q706.5 23.4 706.9 23.8Q707.3 24.2 707.3 24.8Q707.3 25.9 706.5 27.2Q705.7 28.4 704.2 29.5L703.7 28.9Q704.8 28.1 705.3 27.3Q705.9 26.5 705.9 25.9Z" fill="#59636e"/><path d="M399.9 48.3Q399.9 47.4 400.3 46.7Q400.7 46 401.5 45.6Q402.2 45.2 403.2 45.2Q404.1 45.2 404.8 45.7Q405.4 46.2 405.4 46.9Q405.4 47.3 405.2 47.6Q404.9 47.8 404.6 47.8Q404.1 47.8 403.9 47.5Q403.7 47.3 403.6 46.9Q403.4 46.6 403.3 46.3Q403.1 46.1 402.7 46.1Q402.3 46.1 402 46.4Q401.7 46.8 401.7 47.4Q401.7 47.9 401.9 48.4Q402.2 48.9 402.6 49.3Q402.9 49.8 403.3 50.3Q403.7 50.8 403.9 51.5Q404.2 52.1 404.2 52.9Q404.2 53.8 403.7 54.5Q403.2 55.3 402.4 55.8Q401.6 56.2 400.7 56.2Q399.5 56.2 398.8 55.7Q398.1 55.2 398.1 54.3Q398.1 53.7 398.3 53.4Q398.6 53.1 399.1 53.1Q399.9 53.1 400 54.3Q400.1 54.9 400.2 55.1Q400.4 55.3 400.9 55.3Q401.6 55.3 402 54.9Q402.4 54.4 402.4 53.7Q402.4 53.1 402.1 52.5Q401.9 52 401.5 51.5Q401.1 51.1 400.8 50.6Q400.4 50.1 400.1 49.5Q399.9 49 399.9 48.3ZM408.3 56.2Q407.3 56.2 406.7 55.4Q406.1 54.6 406.1 53.3Q406.1 52.2 406.5 51Q406.9 49.9 407.5 48.9Q408.2 47.8 409 47Q409.8 46.2 410.7 45.7Q411.6 45.2 412.4 45.2Q413.7 45.2 414.2 46.5L414.6 45.4H416.3L415.2 48.5Q414.9 49.2 414.6 50.1Q414.3 50.9 414.1 51.8Q413.9 52.6 413.8 53.2Q413.7 53.8 413.7 54.2Q413.7 54.8 414.1 54.8Q414.3 54.8 414.9 54.2Q415.4 53.6 416.1 52.7L416.6 53.1Q415.8 54.6 414.8 55.4Q413.8 56.2 412.9 56.2Q412.4 56.2 412.2 55.9Q411.9 55.5 411.9 54.7Q411.9 54.5 412 54.3Q412 54 412 53.6L411.9 53.6Q411.5 54.4 410.9 54.9Q410.3 55.5 409.6 55.9Q408.9 56.2 408.3 56.2ZM409.2 54.8Q409.7 54.8 410.3 54.3Q410.9 53.8 411.4 52.9Q412 52.1 412.4 51.1Q412.9 50.1 413.1 49.1Q413.4 48.1 413.4 47.4Q413.4 46.8 413.2 46.5Q412.9 46.2 412.6 46.2Q411.9 46.2 411.3 46.7Q410.7 47.1 410.1 47.9Q409.5 48.6 409 49.6Q408.6 50.5 408.3 51.4Q408 52.4 408 53.2Q408 53.9 408.3 54.4Q408.7 54.8 409.2 54.8ZM416.7 61.2Q415.9 61.2 415.4 60.7Q414.9 60.3 414.9 59.6Q414.9 59.1 415.2 58.8Q415.5 58.5 415.9 58.5Q416.3 58.5 416.5 58.7Q416.7 59 416.8 59.2Q416.9 59.5 417.1 59.8Q417.2 60 417.5 60Q417.9 60 418.4 59.6Q419 59.2 419.6 58.5Q420.2 57.9 420.7 57.2Q421.2 56.4 421.4 55.8L420.4 50.2Q420 48.5 419.7 47.9Q419.4 47.3 419 47.3Q418.6 47.3 418.3 47.8Q418 48.4 417.7 49.6L416.9 49.4Q417.2 48.2 417.7 47.2Q418.2 46.3 418.8 45.7Q419.3 45.2 419.9 45.2Q420.3 45.2 420.6 45.5Q420.8 45.8 421.1 46.5Q421.4 47.1 421.6 48.2Q421.9 49.3 422.2 50.6L422.9 53.8H423Q423.5 53.2 424 52.3Q424.5 51.5 424.8 50.5Q425.2 49.6 425.2 48.8Q425.2 48.5 425.1 48.1Q425.1 47.7 425.1 47.2Q425 46.8 425 46.6Q425 45.9 425.4 45.5Q425.8 45.2 426.1 45.2Q426.7 45.2 426.9 45.6Q427.1 46.1 427.1 46.7Q427.1 47.3 426.9 48.3Q426.6 49.2 426.1 50.4Q425.6 51.5 424.9 52.7Q424.3 53.9 423.5 55.1Q422.8 56.3 421.9 57.3Q420.4 59.3 419.1 60.2Q417.9 61.2 416.7 61.2ZM440 49.8Q440.2 49.1 440.4 48.6Q440.5 48.1 440.6 47.8Q440.6 47.4 440.6 47.1Q440.6 46.6 440.5 46.5Q440.3 46.3 440 46.3Q439.2 46.3 438.4 47.1Q437.6 48 436.7 49.8Q435.9 51.7 434.9 54.6L434.4 56H432.7L436.7 42.4Q436.8 41.9 436.9 41.5Q437 41.2 437 41Q437 40.6 436.6 40.4Q436.2 40.2 435.2 40.2L435.4 39.4H439.4L437.2 47.1L437.2 47.2Q437.9 46.2 438.7 45.7Q439.5 45.2 440.4 45.2Q441.4 45.2 441.9 45.8Q442.4 46.3 442.4 47.4Q442.4 48 442.2 48.9Q442 49.8 441.6 50.9Q441.2 52 441 52.7Q440.8 53.3 440.6 53.6Q440.6 53.9 440.5 54Q440.5 54.1 440.5 54.2Q440.5 54.7 440.9 54.7Q441.3 54.7 441.9 54.2Q442.4 53.7 443.1 52.9L443.6 53.3Q443.2 54.1 442.5 54.8Q441.8 55.4 441.1 55.8Q440.3 56.2 439.6 56.2Q439.1 56.2 438.8 55.9Q438.6 55.6 438.6 54.9Q438.6 54.5 438.7 53.9Q438.8 53.4 439.1 52.4Q439.4 51.4 440 49.8ZM447.5 56.2Q446.1 56.2 445.4 55.3Q444.6 54.5 444.6 52.9Q444.6 51.8 445 50.7Q445.4 49.6 446 48.6Q446.7 47.6 447.5 46.9Q448.3 46.1 449.2 45.7Q450.1 45.2 451 45.2Q452 45.2 452.6 45.7Q453.2 46.2 453.2 46.9Q453.2 47.6 452.7 48.4Q452.2 49.1 451.3 49.8Q450.4 50.5 449.2 51Q448 51.5 446.7 51.8Q446.6 52.1 446.6 52.4Q446.6 52.6 446.6 52.9Q446.6 54 447 54.5Q447.4 55.1 448.1 55.1Q448.9 55.1 449.7 54.5Q450.5 53.9 451.1 52.9L451.8 53.3Q450.9 54.7 449.8 55.5Q448.7 56.2 447.5 56.2ZM446.9 50.9Q448.2 50.6 449.2 49.9Q450.2 49.3 450.8 48.5Q451.3 47.8 451.3 47Q451.3 46.1 450.6 46.1Q450.1 46.1 449.6 46.5Q449 46.9 448.5 47.6Q448 48.3 447.6 49.1Q447.1 50 446.9 50.9ZM455.3 56.2Q454.6 56.2 454.3 55.9Q453.9 55.6 453.9 54.9Q453.9 54.5 454.1 53.8Q454.2 53.1 454.5 52L457.1 42.2Q457.2 41.8 457.3 41.5Q457.4 41.1 457.4 40.9Q457.4 40.2 455.9 40.2L456.1 39.6L459.7 39.4L456.2 52.6Q456 53.1 455.9 53.5Q455.8 53.9 455.8 54.2Q455.8 54.4 455.9 54.5Q456 54.7 456.2 54.7Q456.6 54.7 456.9 54.4Q457.3 54.1 457.6 53.8Q458 53.4 458.2 53Q458.5 52.6 458.6 52.4L459.2 52.7Q458.8 53.6 458.1 54.4Q457.4 55.2 456.7 55.7Q455.9 56.2 455.3 56.2ZM461.6 56.2Q460.9 56.2 460.5 55.9Q460.2 55.6 460.2 54.9Q460.2 54.5 460.3 53.8Q460.4 53.1 460.7 52L463.4 42.2Q463.5 41.8 463.6 41.5Q463.7 41.1 463.7 40.9Q463.7 40.2 462.2 40.2L462.3 39.6L466 39.4L462.4 52.6Q462.3 53.1 462.2 53.5Q462.1 53.9 462.1 54.2Q462.1 54.4 462.2 54.5Q462.3 54.7 462.5 54.7Q462.8 54.7 463.2 54.4Q463.6 54.1 463.9 53.8Q464.2 53.4 464.5 53Q464.7 52.6 464.9 52.4L465.5 52.7Q465.1 53.6 464.4 54.4Q463.7 55.2 462.9 55.7Q462.2 56.2 461.6 56.2ZM469.7 56.2Q468.8 56.2 468.1 55.7Q467.4 55.2 466.9 54.3Q466.5 53.4 466.5 52.2Q466.5 50.9 467 49.6Q467.4 48.4 468.2 47.4Q469.1 46.4 470.1 45.8Q471.1 45.2 472.2 45.2Q473.2 45.2 473.9 45.7Q474.7 46.2 475.1 47Q475.5 47.9 475.5 49Q475.5 50.3 475 51.6Q474.5 52.8 473.7 53.9Q472.9 54.9 471.8 55.6Q470.8 56.2 469.7 56.2ZM469.9 55.2Q470.4 55.2 470.9 54.8Q471.5 54.3 472 53.5Q472.4 52.8 472.8 51.8Q473.2 50.9 473.4 49.9Q473.6 48.9 473.6 48Q473.6 46.9 473.2 46.5Q472.9 46.1 472.2 46.1Q471.7 46.1 471.1 46.6Q470.6 47 470.1 47.8Q469.7 48.5 469.3 49.4Q469 50.3 468.8 51.3Q468.6 52.3 468.6 53.2Q468.6 54.3 468.9 54.7Q469.3 55.2 469.9 55.2ZM477.8 56.2Q477.2 56.2 476.8 55.8Q476.4 55.4 476.4 54.8Q476.4 54.2 476.8 53.8Q477.2 53.4 477.8 53.4Q478.4 53.4 478.8 53.8Q479.2 54.2 479.2 54.8Q479.2 55.4 478.8 55.8Q478.4 56.2 477.8 56.2Z" fill="#1f2328"/><g class="hh" shape-rendering="crispEdges"><rect x="492.69" y="40" width="3" height="3" fill="#3d444d"/><rect x="498.69" y="40" width="3" height="3" fill="#3d444d"/><rect x="489.69" y="43" width="3" height="3" fill="#3d444d"/><rect x="492.69" y="43" width="3" height="3" fill="#3d444d"/><rect x="495.69" y="43" width="3" height="3" fill="#3d444d"/><rect x="498.69" y="43" width="3" height="3" fill="#3d444d"/><rect x="501.69" y="43" width="3" height="3" fill="#3d444d"/><rect x="492.69" y="46" width="3" height="3" fill="#3d444d"/><rect x="495.69" y="46" width="3" height="3" fill="#3d444d"/><rect x="498.69" y="46" width="3" height="3" fill="#3d444d"/><rect x="495.69" y="49" width="3" height="3" fill="#3d444d"/></g></svg>