<svg xmlns="http://www.w3.org/2000/svg" viewBox="0 0 880 70" width="880" height="70"><style>.sl{animation:sl 8s ease-in-out infinite alternate}@keyframes sl{to{transform:translateX(836px)}}</style><rect width="100%" height="100%" fill="#0A0A0B"/><path d="M6.4 15.4Q6.2 15.5 5.9 15.7Q5.6 15.9 5.2 16Q4.7 16.1 4.2 16.1Q3.4 16.1 2.7 15.8Q2 15.5 1.5 15Q1.1 14.5 0.8 13.8Q0.6 13.2 0.6 12.4Q0.6 11.6 0.8 10.9Q1.1 10.2 1.6 9.7Q2 9.2 2.7 8.9Q3.4 8.6 4.1 8.6Q4.8 8.6 5.4 8.8Q5.9 9 6.3 9.2L5.8 10.3Q5.5 10.1 5.1 9.9Q4.7 9.8 4.2 9.8Q3.7 9.8 3.2 10Q2.8 10.1 2.5 10.5Q2.1 10.9 2 11.3Q1.8 11.8 1.8 12.3Q1.8 12.9 1.9 13.4Q2.1 13.9 2.4 14.2Q2.8 14.6 3.2 14.8Q3.7 15 4.2 15Q4.8 15 5.2 14.8Q5.7 14.6 5.9 14.4ZM18.9 8.7V16H17.7V12.9H14.1V16H12.9V8.7H14.1V11.8H17.7V8.7ZM25.1 16 28.3 8.4H28.4L31.6 16H30.3L29.6 14.3H26.9L26.2 16ZM29.2 13.3 28.3 11 27.4 13.3ZM39.9 8.7Q40.8 8.7 41.3 9Q41.9 9.3 42.2 9.8Q42.6 10.3 42.6 11.1Q42.6 11.5 42.4 11.9Q42.3 12.3 42 12.7Q41.7 13.1 41.2 13.3Q40.8 13.5 40.1 13.5H39V16H37.9V8.7ZM40.1 12.3Q40.5 12.3 40.7 12.2Q41 12.1 41.1 11.9Q41.3 11.7 41.3 11.5Q41.4 11.2 41.4 11.1Q41.4 10.9 41.3 10.7Q41.3 10.5 41.1 10.3Q41 10.1 40.8 10Q40.5 9.8 40.1 9.8H39V12.3ZM48.4 8.7H53.3V9.8H51.4V16H50.3V9.8H48.4ZM59.8 8.7H64.6V9.8H61V11.8H64.2V12.9H61V14.9H64.8V16H59.8ZM73.4 8.7Q74 8.7 74.5 8.9Q75 9 75.4 9.3Q75.7 9.6 75.9 10.1Q76.1 10.5 76.1 11.1Q76.1 11.5 76 11.9Q75.9 12.3 75.6 12.7Q75.3 13 74.9 13.2L76.7 16H75.4L73.7 13.5Q73.7 13.5 73.6 13.5H72.5V16H71.4V8.7ZM73.6 12.3Q74 12.3 74.2 12.2Q74.5 12.1 74.6 11.9Q74.8 11.7 74.9 11.5Q74.9 11.3 74.9 11.1Q74.9 10.9 74.9 10.7Q74.8 10.5 74.7 10.3Q74.5 10.1 74.3 10Q74 9.8 73.6 9.8H72.5V12.3ZM91.3 8.7H92.5V16H91.3ZM99.5 8.7H100.6V16H99.5Z" fill="#5B5D61"/><path d="M2.2 51.7 1.7 45H2.9Q3.3 47.7 5.1 49.2Q7 50.8 9.7 50.8Q11.9 50.8 13.2 49.7Q14.5 48.6 14.5 46.9Q14.5 45.9 14 45.1Q13.5 44.3 12.4 43.5Q11.2 42.8 9.2 41.9Q6.7 40.8 5.3 39.8Q3.9 38.8 3.3 37.6Q2.7 36.5 2.7 35Q2.7 33.1 3.6 31.7Q4.4 30.2 5.9 29.4Q7.4 28.6 9.4 28.6Q11.9 28.6 14.2 30.4L15 29H15.7L16 35H14.9Q14.2 32.5 12.8 31.3Q11.4 30.1 9.5 30.1Q7.7 30.1 6.6 31Q5.5 32 5.5 33.5Q5.5 34.4 6 35.1Q6.4 35.9 7.4 36.6Q8.4 37.2 10.1 38Q13.1 39.3 14.7 40.5Q16.4 41.6 17.1 42.7Q17.7 43.9 17.7 45.5Q17.7 47.5 16.7 49Q15.7 50.6 13.8 51.4Q12 52.3 9.6 52.3Q7.9 52.3 6.5 51.8Q5.1 51.3 3.7 50.2L2.9 51.7ZM32.7 52.3Q31.4 52.3 30.7 51.5Q30.1 50.6 30.1 49.1H29.9Q29.1 50.6 27.7 51.4Q26.3 52.3 24.7 52.3Q23.4 52.3 22.5 51.8Q21.6 51.4 21.1 50.6Q20.6 49.8 20.6 48.7Q20.6 47.3 21.7 46.1Q22.7 44.9 25.5 43.7L29.8 41.8V40.6Q29.8 38.7 29.1 37.8Q28.3 36.9 26.6 36.9Q25.7 36.9 25.2 37.3Q24.8 37.7 24.4 38.9Q24.1 39.7 23.8 40Q23.5 40.3 22.9 40.3Q22.1 40.3 21.8 39.9Q21.4 39.5 21.4 38.8Q21.4 37.4 22.9 36.6Q24.4 35.8 27.2 35.8Q30.3 35.8 31.5 36.8Q32.8 37.9 32.8 40.5V47.2Q32.8 49.1 33.1 49.8Q33.5 50.6 34.3 50.6Q34.6 50.6 35 50.5Q35.4 50.4 35.6 50L36 50.7Q35.6 51.4 34.7 51.8Q33.7 52.3 32.7 52.3ZM26 50.5Q27.1 50.5 28 49.8Q28.8 49.1 29.3 48Q29.8 46.8 29.8 45.5V43.1Q27.5 44 26.2 44.8Q24.8 45.7 24.3 46.5Q23.7 47.3 23.7 48.2Q23.7 49.2 24.3 49.8Q25 50.5 26 50.5ZM43.6 52.3 38.5 39.8Q38 38.6 37.6 38Q37.3 37.5 36.8 37.3Q36.3 37.2 35.5 37.1V36.1H43.5V37.1Q42.7 37.2 42.2 37.2Q41.8 37.3 41.6 37.5Q41.5 37.7 41.5 38.2Q41.5 38.7 41.6 39.1Q41.7 39.6 41.9 40.1L45.1 48.8H45.2L47.9 42.3Q48.5 40.8 48.8 39.9Q49.1 39 49.1 38.3Q49.1 37.6 48.7 37.4Q48.4 37.1 47.2 37.1V36.1H53.1V37.1Q52.6 37.1 52.3 37.4Q51.9 37.6 51.6 38Q51.3 38.4 50.9 39.2Q50.5 40 50.2 40.8Q49.9 41.6 49.7 42.2L45.3 52.3ZM67.7 48.4 68.7 49.2Q66.1 52.3 62.3 52.3Q60 52.3 58.2 51.3Q56.5 50.3 55.5 48.4Q54.5 46.6 54.5 44.2Q54.5 41.8 55.5 39.9Q56.6 38 58.4 36.9Q60.3 35.8 62.7 35.8Q65.6 35.8 67.2 37.4Q68.8 39 68.8 41.9Q68.8 42.3 68.6 42.4Q68.5 42.5 67.9 42.5H58Q57.9 42.7 57.9 43.1Q57.9 43.4 57.9 43.8Q57.9 45.9 58.5 47.5Q59.2 49 60.4 49.9Q61.6 50.7 63.2 50.7Q64.4 50.7 65.5 50.2Q66.6 49.6 67.7 48.4ZM58.2 41.1H63.7Q65 41.1 65.2 41Q65.5 40.8 65.5 40.3Q65.5 38.9 64.6 38.1Q63.7 37.2 62.2 37.2Q60.6 37.2 59.6 38.2Q58.6 39.2 58.2 41.1ZM81 51.7 80.5 45H81.7Q82.1 47.7 83.9 49.2Q85.8 50.8 88.5 50.8Q90.7 50.8 92 49.7Q93.3 48.6 93.3 46.9Q93.3 45.9 92.8 45.1Q92.3 44.3 91.2 43.5Q90.1 42.8 88 41.9Q85.5 40.8 84.1 39.8Q82.7 38.8 82.1 37.6Q81.5 36.5 81.5 35Q81.5 33.1 82.4 31.7Q83.2 30.2 84.7 29.4Q86.2 28.6 88.2 28.6Q90.7 28.6 93 30.4L93.8 29H94.5L94.8 35H93.7Q93 32.5 91.6 31.3Q90.2 30.1 88.3 30.1Q86.5 30.1 85.4 31Q84.3 32 84.3 33.5Q84.3 34.4 84.8 35.1Q85.2 35.9 86.2 36.6Q87.2 37.2 88.9 38Q91.9 39.3 93.6 40.5Q95.2 41.6 95.9 42.7Q96.5 43.9 96.5 45.5Q96.5 47.5 95.5 49Q94.5 50.6 92.6 51.4Q90.8 52.3 88.4 52.3Q86.7 52.3 85.3 51.8Q83.9 51.3 82.5 50.2L81.7 51.7ZM104.4 27.1V47.3Q104.4 48.8 104.6 49.6Q104.8 50.4 105.4 50.6Q106 50.9 107.1 51V52H98.8V51Q100 50.9 100.6 50.6Q101.2 50.4 101.4 49.6Q101.6 48.9 101.6 47.5V34.6Q101.6 33 101.6 31.9Q101.5 30.8 101.5 30.4Q101.3 29.7 100.8 29.5Q100.2 29.2 98.8 29.2V28.2ZM117.7 35.8Q119.4 35.8 120.9 36.4Q122.4 37 123.6 38.1Q124.7 39.2 125.4 40.7Q126.1 42.2 126.1 43.9Q126.1 45.8 125.4 47.3Q124.7 48.8 123.6 49.9Q122.4 51.1 120.9 51.7Q119.4 52.3 117.7 52.3Q116 52.3 114.5 51.7Q113 51.1 111.8 49.9Q110.7 48.8 110 47.3Q109.3 45.8 109.3 43.9Q109.3 41.6 110.5 39.7Q111.6 37.9 113.5 36.8Q115.4 35.8 117.7 35.8ZM117.7 37.2Q116.2 37.2 115.1 38.1Q114 38.9 113.4 40.4Q112.7 42 112.7 44Q112.7 47 114.1 48.9Q115.4 50.8 117.7 50.8Q120 50.8 121.3 48.9Q122.7 47 122.7 44Q122.7 42 122.1 40.5Q121.4 39 120.3 38.1Q119.2 37.2 117.7 37.2ZM130.5 38H128.7V36.9Q130.3 35.9 131.2 35Q132.1 34.1 132.6 32.8H133.5V36.6H137.5V38H133.5V47.1Q133.5 49.2 133.9 50Q134.3 50.8 135.5 50.8Q136.3 50.8 136.8 50.5Q137.4 50.2 137.8 49.5L138.6 50Q137.7 52.3 134.6 52.3Q132.6 52.3 131.6 51.3Q130.5 50.4 130.5 48.6ZM142 51 141.4 52H140.8V46.8H141.5Q142.1 49 143.2 50Q144.2 51.1 145.8 51.1Q147 51.1 147.7 50.5Q148.4 49.9 148.4 48.7Q148.4 48.1 148.2 47.7Q147.9 47.3 147.1 46.8Q146.4 46.2 144.9 45.3Q143.6 44.5 142.7 43.8Q141.8 43.1 141.3 42.3Q140.9 41.5 140.9 40.4Q140.9 39 141.5 38Q142.1 37 143.1 36.4Q144.1 35.8 145.3 35.8Q146.2 35.8 147 36.1Q147.9 36.3 148.6 36.7L149.2 36.1H149.7V40.4H148.9Q148.3 38.6 147.5 37.8Q146.7 37 145.6 37Q144.6 37 144 37.6Q143.3 38.1 143.3 39.1Q143.3 40.1 144 40.7Q144.7 41.3 146.3 42.3Q148 43.4 149.1 44.2Q150.1 45 150.6 45.8Q151.1 46.6 151.1 47.7Q151.1 49.8 149.7 51.1Q148.3 52.3 146.1 52.3Q144.9 52.3 143.9 52Q142.9 51.6 142 51Z" fill="#EDEDED"/><rect x="0" y="64" width="880" height="1" fill="#232426"/><rect class="sl" x="0" y="63" width="44" height="3" fill="#EDEDED"/></svg>